<svg version="1.1" viewBox="0.0 0.0 288.0 288.0" fill="none" stroke="none" stroke-linecap="square" stroke-miterlimit="10" xmlns:xlink="http://www.w3.org/1999/xlink" xmlns="http://www.w3.org/2000/svg"><clipPath id="p.0"><path d="m0 0l288.0 0l0 288.0l-288.0 0l0 -288.0z" clip-rule="nonzero"/></clipPath><g clip-path="url(#p.0)"><path fill="#000000" fill-opacity="0.0" d="m0 0l288.0 0l0 288.0l-288.0 0z" fill-rule="evenodd"/><path fill="#45818e" d="m14.39317 144.00029l0 0c0 -71.57959 58.026714 -129.60631 129.6063 -129.60631l0 0c34.373734 0 67.3396 13.65491 91.64549 37.960808c24.305908 24.305897 37.960815 57.271763 37.960815 91.64549l0 0c0 71.579575 -58.02672 129.60631 -129.60631 129.60631l0 0c-71.57958 0 -129.6063 -58.026733 -129.6063 -129.60631z" fill-rule="evenodd"/><path stroke="#a2c4c9" stroke-width="24.0" stroke-linejoin="round" stroke-linecap="butt" d="m14.39317 144.00029l0 0c0 -71.57959 58.026714 -129.60631 129.6063 -129.60631l0 0c34.373734 0 67.3396 13.65491 91.64549 37.960808c24.305908 24.305897 37.960815 57.271763 37.960815 91.64549l0 0c0 71.579575 -58.02672 129.60631 -129.60631 129.60631l0 0c-71.57958 0 -129.6063 -58.026733 -129.6063 -129.60631z" fill-rule="evenodd"/><path fill="#000000" fill-opacity="0.0" d="m6.25586 20.000048l264.0 0l0 264.0l-264.0 0z" fill-rule="evenodd"/><path fill="#ffffff" d="m126.0293 115.97504l18.75 0q4.765625 -18.671875 11.25 -28.625q6.484375 -9.96875 16.953125 -15.46875q10.46875 -5.515625 19.609375 -5.515625q5.234375 0 8.359375 2.109375q3.125 2.109375 3.125 5.859375q0 3.046875 -1.5625 5.046875q-1.5625 1.984375 -4.296875 1.984375q-2.8125 0 -9.0625 -2.8125q-6.328125 -2.734375 -9.21875 -2.734375q-5.15625 0 -8.59375 5.390625q-3.4375 5.390625 -6.40625 18.125l-4.0625 16.640625l20.859375 0l-1.328125 5.546875l-20.78125 0l-12.34375 49.765625q-3.515625 14.0625 -10.90625 24.640625q-7.375 10.59375 -17.453125 16.171875q-10.078125 5.59375 -21.09375 5.59375q-5.390625 0 -8.125 -2.421875q-2.734375 -2.421875 -2.734375 -6.015625q0 -3.28125 1.875 -5.078125q1.875 -1.796875 5.0 -1.796875q2.03125 0 4.0625 0.65625q2.03125 0.671875 4.140625 1.40625q2.109375 0.75 4.453125 1.40625q2.34375 0.671875 5.0 0.671875q4.453125 0 7.109375 -2.0q2.65625 -1.984375 4.6875 -6.4375q2.03125 -4.453125 4.140625 -12.8125l15.859375 -63.75l-18.75 0l1.484375 -5.546875z" fill-rule="nonzero"/></g></svg>